<svg fill="none" height="21" viewBox="0 0 62 21" width="62" xmlns="http://www.w3.org/2000/svg"><path d="m14 16.4975c0 1.0615-.4214 2.0796-1.1716 2.8302-.7501.7506-1.7675 1.1723-2.8284 1.1723h-5.99999c-.52613 0-1.04709-.1039-1.53305-.3056-.48595-.2018-.92735-.4975-1.29892-.8702-.371562-.3728-.665991-.8152-.866421-1.302-.20043-.4867-.30292182-1.0083-.3016065-1.5347v-11.99756c0-.26538.1053565-.5199.2928925-.70755.187537-.18765.44189-.29308.707105-.29308.26522 0 .51957.10543.70711.29308.18753.18765.29289.44217.29289.70755l-.00001 4.37702 1.00001.62613v-7.00441c0-.26538.10536-.51989.29289-.70755.18754-.18765.44189-.29307.70711-.29307s.51957.10542.7071.29307c.18754.18766.2929.44217.2929.70755v7.00441h1v-8.00503c0-.26539.10535-.519902.29289-.707556s.44189-.293077.70711-.293077c.26521 0 .51957.105423.7071.293077.18754.187654.2929.442166.2929.707556v8.00503l.99998-.50032.00001-6.50409c0-.26538.10536-.51989.2929-.70755.18753-.18765.44189-.29307.7071-.29307.2652 0 .5196.10542.7071.29307.1875.18766.2929.44217.2929.70755v13.00822h1v-6.00381c0-.26539.1054-.5199.2929-.70756.1875-.18765.4419-.29307.7071-.29307h1z" fill="#000"/><ellipse cx="5.59866" cy="13.4472" fill="#000" rx="1.76871" ry="1.95289"/><path d="m5.5 16.7883c-.49445 0-.9778-.1467-1.38892-.4216-.41113-.2749-.73156-.6656-.92078-1.1227s-.23873-.96-.14226-1.4453c.09646-.4853.33456-.931.68419-1.2808.34964-.3499.79509-.5882 1.28004-.6847.48496-.0965.98762-.047 1.44444.1424.45681.1893.84726.5099 1.12196.9213.27471.4114.42133.8951.42133 1.3898-.00071.6633-.26432 1.2991-.73301 1.7681s-1.10417.7328-1.76699.7335zm0-4.7623c-.44701 0-.88399.1326-1.25566.3811-.37167.2486-.66134.6018-.83237 1.015-.17104.4133-.21575.868-.12849 1.3067.08725.4387.30256.8417.6187 1.1579.31613.3162.71888.5316 1.15733.6187.43844.0872.89287.0423 1.30582-.1289.41295-.1713.76586-.4612 1.01412-.8332.24825-.372.38068-.8093.38055-1.2566-.00053-.5995-.23883-1.1743-.66256-1.5982-.42374-.4239-.99827-.6622-1.59744-.6625z" fill="#fff" stroke="#fff" stroke-width=".5"/><path d="m7.30322 15.927 2.08212 2.1674" stroke="#fff" stroke-linejoin="round" stroke-width=".7"/><g fill="#000"><path d="m20.1695 9.21875c-.5805 0-1.1242-.04496-1.631-.13489-.4987-.08175-.9402-.22482-1.3245-.42921-.376-.21256-.6744-.50279-.8952-.87068-.2125-.37607-.3188-.84615-.3188-1.41026 0-.01635 0-.03678 0-.06131 0-.0327.0041-.0654.0123-.09811h2.563c-.0082.03271-.0123.06541-.0123.09811v.07358c0 .24526.0572.43329.1717.5641.1144.13081.2738.22074.4782.26979.2126.04087.4497.06131.7113.06131h.3066c.1144-.00817.2207-.02043.3188-.03679.1063-.02452.2003-.05722.2821-.0981.0899-.04088.1594-.09402.2084-.15942.0491-.07358.0736-.16351.0736-.26979 0-.15533-.0695-.27796-.2085-.36789-.1389-.08993-.327-.1676-.5641-.233-.237-.0654-.5027-.12672-.7971-.18395-.2943-.05722-.6009-.12263-.9197-.19621-.3188-.08175-.6254-.18394-.9197-.30657-.2943-.12264-.56-.27797-.7971-.466-.2371-.19621-.4252-.43739-.5641-.72352-.139-.29432-.2085-.64586-.2085-1.05463 0-.49053.1022-.90747.3066-1.25084.2044-.34336.4823-.62133.8339-.83389.3597-.212559.7644-.367891 1.214-.465996.4578-.098105.9361-.147157 1.4348-.147157.5069 0 .981.05314 1.4225.15942.4497.098105.8462.253438 1.1895.465993.3434.21257.6132.48235.8094.80937s.2984.71535.3066 1.16499v.14716h-2.5385v-.04905c0-.14716-.0368-.28614-.1104-.41695-.0735-.1308-.1921-.23708-.3556-.31884-.1553-.08175-.3638-.12263-.6254-.12263-.2453 0-.4537.02453-.6254.07358-.1635.04905-.2862.11854-.3679.20847-.0818.08176-.1226.17169-.1226.26979 0 .15533.0694.28205.2084.38016.139.0981.327.17986.5641.24526s.5028.12672.7971.18395c.2943.05722.6009.12263.9198.19621.3188.0654.6254.15533.9197.26978.2943.11446.56.2657.7971.45374.2371.17986.4251.40468.5641.67447s.2085.60089.2085.99331c0 .69491-.1635 1.25901-.4906 1.69231-.3188.43329-.7603.75213-1.3244.95652-.5559.19621-1.1895.29431-1.9007.29431z"/><path d="m27.8054 9.21875c-.4414 0-.8339-.04905-1.1772-.14715-.3352-.10628-.5968-.28614-.7849-.53958-.188-.25344-.282-.60089-.282-1.04236v-3.23746h-.9075v-1.65552h1.0056l.5273-1.962096h1.8149v1.962096h1.3735v1.65552h-1.3735v2.46488c0 .27796.045.49052.1349.63768.09.13898.2739.20848.5519.20848h.6867v1.43478c-.1308.04087-.2943.07766-.4905.11037-.188.04087-.3802.06949-.5764.08584-.188.01635-.3556.02452-.5028.02452z"/><path d="m33.8553 9.21875c-.7358 0-1.3776-.12263-1.9253-.36789-.5396-.25344-.9607-.62951-1.2631-1.1282-.3025-.50688-.4538-1.13639-.4538-1.88852 0-.76031.1513-1.38982.4538-1.88852.3024-.4987.7235-.87068 1.2631-1.11594.5477-.25344 1.1895-.38016 1.9253-.38016.7357 0 1.3775.12672 1.9253.38016.5477.24526.9728.61724 1.2753 1.11594s.4538 1.12821.4538 1.88852c0 .75213-.1513 1.38164-.4538 1.88852-.3025.49869-.7276.87476-1.2753 1.1282-.5478.24526-1.1896.36789-1.9253.36789zm0-1.65551c.2861 0 .5191-.05315.699-.15943.1798-.11445.3106-.27387.3924-.47826.0817-.20438.1226-.44964.1226-.73578v-.699c0-.28614-.0409-.5314-.1226-.73578-.0818-.21257-.2126-.37199-.3924-.47827-.1799-.11445-.4129-.17168-.699-.17168-.2862 0-.5192.05723-.699.17168-.1717.10628-.2984.2657-.3802.47827-.0817.20438-.1226.44964-.1226.73578v.699c0 .28614.0409.5314.1226.73578.0818.20439.2085.36381.3802.47826.1798.10628.4128.15943.699.15943z"/><path d="m38.6991 11.4874v-8.89072h1.9866l.2085.91973h.0858c.2289-.38424.511-.65812.8462-.82163.3352-.1635.7112-.24526 1.1282-.24526.5723 0 1.0628.12672 1.4716.38016.4087.24526.7194.62133.932 1.1282.2207.4987.3311 1.12821.3311 1.88852 0 .75214-.1104 1.37756-.3311 1.87626-.2126.49869-.5233.87476-.932 1.1282-.4088.24526-.8993.36789-1.4716.36789-.2289 0-.4537-.02452-.6745-.07358-.2125-.04905-.4088-.12671-.5886-.23299-.1799-.11446-.3352-.25753-.466-.42921h-.0859v3.00443zm3.495-4.07132c.2534 0 .4578-.05314.6131-.15942.1554-.10628.2657-.25344.3311-.44147.0736-.18804.1104-.40877.1104-.66221v-.64995c0-.25343-.0368-.47417-.1104-.6622-.0654-.18804-.1757-.33111-.3311-.42921-.1553-.10628-.3597-.15942-.6131-.15942-.2535 0-.4619.06131-.6254.18394-.1554.12264-.2698.29023-.3434.50279-.0736.20439-.1104.4333-.1104.68674v.40468c0 .18803.0205.36789.0613.53957.0409.16351.1022.31067.184.44148.0899.12263.2044.22073.3433.29431.139.07358.3025.11037.4906.11037z"/><path d="m49.7965 5.82483 1.3579-.84815c.1817-.11718.293-.22705.334-.32959.0439-.10546.0659-.208.0659-.30761 0-.12012-.0439-.23291-.1318-.33838-.085-.1084-.2051-.1626-.3604-.1626-.1142 0-.2109.02637-.29.0791-.0762.04981-.1348.11719-.1758.20215-.0381.08496-.0571.18018-.0571.28565 0 .13183.0366.26513.1098.3999.0733.13476.17.27685.2901.42627.123.14941.2593.31347.4087.49218l3.0102 3.4629h-1.6523l-2.4522-2.78614c-.2021-.25781-.3779-.49511-.5273-.71191-.1465-.2168-.2607-.42774-.3428-.63281-.082-.20508-.123-.41602-.123-.63282 0-.33691.0732-.63427.2197-.89209.1494-.26074.3589-.46435.6284-.61084.2725-.14941.5918-.22412.958-.22412.3399 0 .6343.07032.8833.21094.252.14063.4468.32813.5845.5625.1377.23145.2065.48633.2065.76465 0 .19336-.0366.37646-.1098.54932-.0733.17285-.1743.33105-.3032.4746-.126.14356-.271.27393-.4351.39112l-1.4678 1.02392c-.0586.07325-.1069.14795-.145.22412-.0351.07325-.0615.14795-.0791.22413-.0146.07617-.022.1582-.022.24609 0 .15234.0323.28711.0967.4043.0645.11425.1494.20361.2549.26806.1084.06446.2256.09668.3516.09668.2373 0 .4658-.05127.6855-.15381.2227-.10546.4219-.25341.5977-.44384.1757-.19043.3149-.41748.4174-.68116.1026-.26367.1539-.55371.1539-.87011h1.2392c0 .3457-.0351.67529-.1055.98877-.0673.31054-.1801.59765-.3383.86132-.1553.26368-.3648.49512-.6285.69434-.0146.00879-.0424.02637-.0835.05273-.038.02344-.0659.03956-.0834.04834-.3077.21973-.6109.38233-.9097.4878s-.6475.1582-1.0459.1582c-.4307 0-.8028-.07764-1.1162-.23291-.3106-.15527-.5508-.36914-.7207-.6416-.17-.27246-.2549-.58447-.2549-.93604 0-.24902.0469-.46582.1406-.65039.0938-.1875.2241-.36035.3911-.51855s.3589-.31641.5757-.47461z"/><path d="m20.152 20.4874c-.5781 0-1.1194-.0447-1.6242-.1343-.4966-.0814-.9362-.2239-1.3188-.4274-.3745-.2117-.6717-.5007-.8915-.867-.2117-.3745-.3175-.8426-.3175-1.4044 0-.0163 0-.0366 0-.061 0-.0326.0041-.0652.0122-.0977h2.5523c-.0082.0325-.0123.0651-.0123.0977v.0732c0 .2443.057.4315.171.5618.114.1302.2727.2198.4763.2686.2116.0407.4477.0611.7082.0611h.3053c.114-.0082.2198-.0204.3175-.0367.1059-.0244.1995-.0569.2809-.0976.0895-.0408.1587-.0937.2076-.1588.0488-.0733.0733-.1628.0733-.2687 0-.1546-.0692-.2768-.2076-.3663-.1384-.0896-.3257-.1669-.5618-.232-.2361-.0652-.5006-.1262-.7937-.1832s-.5984-.1221-.9159-.1954c-.3175-.0814-.6228-.1832-.9159-.3053s-.5576-.2768-.7937-.464c-.2361-.1954-.4234-.4356-.5618-.7205-.1384-.2931-.2076-.6432-.2076-1.0502 0-.4885.1018-.9037.3053-1.2456s.4803-.6187.8304-.8304c.3582-.2117.7612-.3663 1.209-.464.4559-.0977.9321-.1466 1.4287-.1466.5048 0 .977.0529 1.4166.1588.4477.0977.8426.2523 1.1845.464s.6106.4803.806.806c.1954.3256.2971.7123.3053 1.1601v.1465h-2.5278v-.0488c0-.1466-.0367-.285-.1099-.4152-.0733-.1303-.1914-.2361-.3542-.3175-.1547-.0814-.3623-.1221-.6228-.1221-.2442 0-.4518.0244-.6228.0732-.1628.0489-.2849.1181-.3663.2076-.0814.0814-.1221.171-.1221.2687 0 .1547.0692.2809.2076.3786.1384.0976.3256.1791.5617.2442s.5007.1262.7938.1832c.293.057.5983.1221.9158.1954.3175.0651.6228.1546.9159.2686s.5577.2646.7938.4518c.2361.1791.4233.403.5617.6717.1384.2686.2076.5984.2076.9891 0 .692-.1628 1.2538-.4885 1.6852-.3175.4315-.7571.749-1.3188.9525-.5536.1954-1.1846.2931-1.8928.2931z"/><path d="m28.5008 20.4874c-.7734 0-1.445-.118-2.0149-.3541-.5617-.2442-.9973-.6147-1.3066-1.1113-.3013-.4966-.4519-1.1316-.4519-1.905 0-.7571.1506-1.384.4519-1.8806.3012-.4966.7205-.867 1.2578-1.1113.5454-.2523 1.1845-.3785 1.9172-.3785.7734 0 1.4288.1221 1.9661.3663.5454.2361.9606.6025 1.2456 1.0991.2849.4966.4274 1.1316.4274 1.905v.4152h-4.8358c0 .2931.0407.5455.1221.7571.0895.2117.2279.3745.4152.4885.1954.1058.4477.1587.7571.1587.2198 0 .403-.0244.5495-.0732.1547-.0489.2768-.114.3664-.1954.0977-.0896.1669-.1913.2076-.3053s.061-.2361.061-.3664h2.3569c0 .3827-.0733.7287-.2198 1.038-.1466.3094-.3664.574-.6595.7938-.293.2117-.6594.3745-1.099.4885-.4315.1139-.9362.1709-1.5143.1709zm-1.331-4.1031h2.369c0-.171-.0244-.3216-.0732-.4518-.0489-.1384-.1222-.2524-.2199-.342-.0895-.0976-.2035-.1709-.3419-.2198-.1302-.0488-.2808-.0732-.4518-.0732-.2687 0-.4925.0447-.6717.1343-.1791.0895-.3175.2157-.4151.3786-.0977.1546-.1629.346-.1954.5739z"/><path d="m35.0706 20.4874c-.3338 0-.6391-.0325-.9159-.0977-.2768-.057-.5169-.1546-.7204-.293-.2036-.1466-.3623-.3338-.4763-.5618-.1058-.2361-.1588-.521-.1588-.8548 0-.4803.0977-.8711.2931-1.1723.2036-.3012.4966-.5333.8793-.6961.3826-.1628.8466-.2727 1.3921-.3297.5536-.0651 1.1845-.0977 1.8928-.0977v-.3175c0-.1791-.0448-.3216-.1343-.4274-.0814-.114-.1913-.1995-.3297-.2565-.1384-.0569-.2972-.0854-.4763-.0854-.1384 0-.2809.0162-.4274.0488s-.2687.0896-.3664.171c-.0895.0814-.1343.1954-.1343.3419v.0489h-2.3935c-.0081-.0326-.0122-.0611-.0122-.0855 0-.0245 0-.0529 0-.0855 0-.3989.1262-.7449.3786-1.038.2605-.3012.6391-.5332 1.1357-.6961.5047-.1709 1.1234-.2564 1.8561-.2564.5943 0 1.1439.0651 1.6486.1954.5048.1302.9118.35 1.2212.6594.3093.3012.464.7164.464 1.2456v2.5156c0 .1303.0326.2442.0977.3419.0652.0896.1628.1344.2931.1344h.4396v1.4043c-.0977.057-.2605.1099-.4884.1587-.2199.057-.4804.0855-.7816.0855-.3256 0-.6106-.0325-.8548-.0977-.2442-.0651-.4437-.1587-.5984-.2808-.1465-.1222-.2483-.2646-.3053-.4274h-.0855c-.1709.1546-.3704.293-.5983.4152-.2198.1221-.4722.2157-.7571.2808-.285.0733-.6106.1099-.977.1099zm.9892-1.5142c.1546 0 .3012-.0204.4396-.0611.1465-.0488.2768-.1099.3908-.1832.1139-.0814.2035-.175.2686-.2808.0651-.114.0977-.2361.0977-.3664v-.5495c-.4803 0-.8711.0366-1.1723.1099-.2931.0733-.5088.171-.6472.2931s-.2076.2646-.2076.4274.0407.289.1221.3786c.0814.0895.1832.1506.3053.1831.1302.0326.2646.0489.403.0489z"/><path d="m41.3107 20.3409v-6.4478h1.9905l.1587.977h.0855c.1059-.2443.2402-.4519.403-.6228.171-.171.3664-.2972.5862-.3786.2198-.0896.4518-.1343.696-.1343.1629 0 .3094.0163.4397.0488.1302.0326.2238.0651.2808.0977v2.0394h-.7815c-.2605 0-.4844.0366-.6717.1099-.1791.0651-.3256.1669-.4396.3053-.1058.1302-.1872.293-.2442.4884-.0489.1873-.0733.403-.0733.6472v2.8698z"/><path d="m49.9513 20.4874c-.7327 0-1.3718-.1221-1.9172-.3663-.5373-.2524-.9566-.6269-1.2578-1.1235-.3013-.5047-.4519-1.1316-.4519-1.8806 0-.7571.1506-1.384.4519-1.8806.3012-.5047.7205-.8792 1.2578-1.1235.5454-.2523 1.1845-.3785 1.9172-.3785.4885 0 .9484.0529 1.3799.1587.4315.1059.8101.2687 1.1357.4885.3257.2198.578.5047.7571.8548.1873.3501.2809.7693.2809 1.2578h-2.3569c0-.2524-.0488-.46-.1465-.6228-.0895-.1628-.2239-.2809-.403-.3541-.1791-.0814-.3948-.1221-.6472-.1221-.2849 0-.517.0569-.6961.1709-.1709.1059-.2971.2646-.3785.4763-.0814.2035-.1221.4477-.1221.7327v.696c0 .285.0407.5292.1221.7327.0895.2036.2239.3623.403.4763.1872.1058.4274.1588.7204.1588.2687 0 .4926-.0367.6717-.11.1872-.0814.3297-.2035.4274-.3663.0977-.171.1465-.3867.1465-.6472h2.2592c0 .4884-.0936.9118-.2809 1.27-.1791.3501-.4314.635-.7571.8548-.3256.2198-.7042.3826-1.1357.4885-.4315.1058-.8914.1587-1.3799.1587z"/><path d="m54.7626 20.3409v-8.8535h2.4301v3.0774h.0855c.1384-.1791.3134-.3257.5251-.4397.2117-.1221.4396-.2157.6839-.2808.2442-.0651.4844-.0977.7205-.0977.5128 0 .9321.0977 1.2578.2931.3337.1872.582.4599.7449.8181.1628.3583.2442.7938.2442 1.3067v4.1764h-2.4301v-3.8833c0-.1384-.0204-.2605-.0611-.3664-.0325-.1139-.0814-.2116-.1465-.2931-.0652-.0814-.1506-.1424-.2565-.1831-.0977-.0489-.2157-.0733-.3541-.0733-.2035 0-.3826.0488-.5373.1465-.1466.0896-.2646.2117-.3542.3664-.0814.1465-.1221.3134-.1221.5007v3.7856z"/></g></svg>